<svg width="157" height="46" viewBox="0 0 157 46" fill="none" xmlns="http://www.w3.org/2000/svg">
<path d="M78.3867 45.2781C54.5146 45.2781 30.6424 45.2781 6.77028 45.2781C2.1361 45.2781 0.00193575 43.1483 0.00193575 38.5272C0.00193575 27.7911 -0.00241969 17.0549 0.00193575 6.3144C0.00629118 2.27256 2.28418 -0.000976562 6.33038 -0.000976562C54.3708 -0.000976562 102.403 -0.000976562 150.439 0.00337887C154.489 0.00337887 156.767 2.27692 156.767 6.31876C156.776 17.1986 156.776 28.0829 156.767 38.9627C156.763 43.0046 154.485 45.2781 150.439 45.2781C126.423 45.2825 102.407 45.2781 78.3867 45.2781Z" fill="#A5A5A5"/>
<path d="M78.3997 44.4115C54.6756 44.4115 30.9472 44.4115 7.22316 44.4115C2.62382 44.4115 0.87729 42.6911 0.87729 38.1615C0.872935 27.7825 0.872935 17.4078 0.87729 7.03754C0.87729 2.62984 2.64995 0.870239 7.0925 0.870239C54.6147 0.870239 102.137 0.870239 149.659 0.870239C154.115 0.870239 155.896 2.62548 155.896 7.0114C155.9 17.4557 155.9 27.9044 155.896 38.3488C155.892 42.6084 154.08 44.4028 149.79 44.4028C125.996 44.4115 102.198 44.4115 78.3997 44.4115Z" fill="black"/>
<path d="M14.8059 23.2174C14.8538 16.3837 19.8582 12.3244 25.59 14.9333C26.84 15.5039 27.9637 15.2731 29.1266 14.746C31.9445 13.4655 34.6014 13.7835 37.0578 15.6563C37.8723 16.2748 38.3775 16.6407 37.1536 17.686C34.009 20.382 34.2703 24.9552 37.6153 27.3899C38.7477 28.213 39.0134 28.8664 38.2599 30.0031C37.5021 31.1443 36.8662 32.3725 36.0474 33.4657C34.1615 35.9875 32.8853 36.3447 29.9193 35.2689C28.2119 34.6504 26.5264 34.5502 24.8713 35.3429C22.7459 36.3621 21.0429 35.9047 19.4662 34.1713C16.5263 30.9265 15.1543 27.0806 14.8059 23.2174Z" fill="#FEFEFE"/>
<path d="M79.6977 34.6295C79.6977 36.1713 79.6715 37.4736 79.7064 38.7758C79.7282 39.5772 79.7064 40.1173 78.6045 40.0999C77.5417 40.0825 77.263 39.7384 77.2761 38.7192C77.324 34.4509 77.3632 30.1826 77.263 25.9186C77.2194 24.0545 79.0139 24.8297 79.0487 24.9212C79.7107 26.6852 80.4773 25.3567 81.2003 25.0606C82.8249 24.3942 84.4277 24.2548 85.8737 25.47C87.8554 27.1381 88.3606 29.3725 87.8031 31.7462C86.8624 35.7401 83.2778 37.0424 79.6977 34.6295Z" fill="#FCFCFC"/>
<path d="M66.8493 34.8904C66.8493 36.1883 66.7839 37.4775 66.871 38.7624C66.9407 39.8426 66.5008 40.0647 65.4991 40.0952C64.3405 40.13 64.4451 39.4767 64.4494 38.7319C64.4581 34.5376 64.4407 30.3433 64.4756 26.1491C64.4799 25.683 64.0749 24.825 65.0548 24.8555C65.6167 24.8729 66.5575 24.2762 66.662 25.5959C66.7404 26.6064 67.1759 25.7788 67.4198 25.6351C70.0549 24.0672 72.2021 24.2457 73.8005 26.1839C75.6168 28.3878 75.5514 32.1901 73.6568 34.3983C72.1673 36.1361 69.7761 36.3364 67.4329 34.9296C67.324 34.8643 67.1585 34.9035 66.8493 34.8904Z" fill="#FDFDFD"/>
<path d="M62.2411 35.5349C60.2419 36.21 59.127 35.3955 58.9876 33.5793C58.7655 30.7134 56.7968 31.2622 54.9414 31.0793C52.8551 30.8746 52.8377 32.3249 52.4631 33.588C51.7924 35.8485 51.7924 35.8528 49.3359 35.5087C50.7819 31.0488 52.2628 26.6062 53.6522 22.1376C54.018 20.9659 54.6234 20.6262 55.8168 20.6349C56.9492 20.6393 57.4632 20.9964 57.8029 22.0722C59.2228 26.5365 60.7298 30.9704 62.2411 35.5349Z" fill="#FCFCFC"/>
<path d="M96.0961 35.9228C95.678 35.8357 94.6936 35.6266 93.7093 35.4306C92.9035 35.2738 92.6161 34.847 92.8731 34.0369C93.117 33.266 93.461 33.0917 94.2799 33.4053C95.2773 33.7886 96.34 34.1414 97.455 33.8975C98.4785 33.6754 99.4454 33.3139 99.685 32.1335C99.9376 30.8792 99.2843 30.0604 98.2172 29.529C97.1849 29.0151 96.1222 28.5534 95.0987 28.022C93.5133 27.1988 92.8077 25.8704 92.9863 24.0934C93.1562 22.3817 94.2189 21.3582 95.7389 20.792C97.3461 20.1953 98.9968 20.3695 100.643 20.6875C101.344 20.8225 101.627 21.1448 101.423 21.8808C101.218 22.6039 100.965 22.9828 100.081 22.691C99.0491 22.3556 97.9558 22.2772 96.867 22.5821C96.083 22.7998 95.6083 23.3181 95.4428 24.0629C95.2729 24.8382 95.5996 25.5046 96.2746 25.9009C97.0151 26.3365 97.7947 26.7154 98.583 27.0638C101.445 28.3225 102.629 30.0386 102.124 32.2555C101.588 34.59 99.6196 35.9184 96.0961 35.9228Z" fill="#FCFCFC"/>
<path d="M117.333 24.5982C120.521 24.6417 122.799 26.9066 122.808 30.0425C122.817 33.5094 120.521 35.9397 117.259 35.9223C113.844 35.9049 111.88 33.7315 111.919 30.0033C111.954 26.6888 114.093 24.5546 117.333 24.5982Z" fill="#FDFDFD"/>
<path d="M137.939 30.9139C137.359 30.9139 136.771 30.8572 136.205 30.9313C135.613 31.0097 134.716 30.5175 134.485 31.3058C134.258 32.0898 134.82 32.7693 135.491 33.2963C136.85 34.3634 138.374 33.9975 139.851 33.8015C140.399 33.7275 140.8 33.5271 141.031 34.224C141.262 34.9296 140.979 35.2562 140.347 35.5219C138.004 36.5149 134.398 35.7223 133.034 33.8755C131.41 31.6761 131.575 28.3616 133.418 26.271C134.855 24.642 137.133 24.0671 139.128 24.9382C141.083 25.7919 141.767 27.4077 141.784 29.4766C141.797 30.6046 141.488 31.0619 140.33 30.9356C139.537 30.8442 138.736 30.9139 137.939 30.9139Z" fill="#FCFCFC"/>
<path d="M108.583 35.9447C106.823 35.8358 105.582 35.152 105.395 33.3096C105.251 31.881 105.295 30.435 105.138 29.0064C105.033 28.0482 105.887 26.5718 103.901 26.4411C103.478 26.415 103.557 25.6048 103.661 25.5439C104.798 24.8644 104.951 23.3879 105.891 22.6867C106.728 22.0639 108.065 21.637 107.786 23.6754C107.612 24.9602 108.465 24.8383 109.271 24.8078C109.881 24.786 110.408 24.786 110.417 25.6658C110.421 26.5238 109.924 26.6502 109.306 26.5456C107.747 26.2799 107.729 27.2164 107.777 28.3357C107.834 29.6336 107.79 30.9359 107.79 32.2382C107.79 33.0222 108.012 33.8105 108.866 33.8628C109.811 33.9194 110.434 34.1284 110.264 35.1607C110.09 36.1886 109.127 35.7138 108.583 35.9447Z" fill="#F9F9F9"/>
<path d="M127.172 26.3756C127.947 25.5176 128.553 24.7946 129.55 24.6552C130.134 24.5724 130.844 24.4461 130.826 25.2998C130.817 25.8529 131.432 26.8198 130.077 26.8721C127.895 26.9636 127.385 28.4575 127.39 30.3129C127.394 31.6892 127.324 33.0655 127.412 34.4331C127.481 35.5438 126.985 35.7093 126.013 35.7398C124.842 35.779 124.986 35.0908 124.977 34.3635C124.942 31.4758 124.907 28.5838 124.829 25.6961C124.816 25.1866 124.846 24.9165 125.421 24.8033C126.58 24.5681 127.015 25.2258 127.172 26.3756Z" fill="#F8F8F8"/>
<path d="M32.7593 8.28761C32.4587 10.8355 30.477 13.0742 28.1382 13.5838C27.058 13.819 26.6921 13.6274 26.8881 12.4253C27.2714 10.0603 29.3925 7.69962 31.7314 7.17697C32.7201 6.9592 33.1164 7.21617 32.7593 8.28761Z" fill="#F9F9F9"/>
<path d="M102.59 11.4367C102.59 11.9463 102.651 12.4602 102.577 12.9567C102.464 13.7015 102.677 15.2259 102.302 15.0778C100.896 14.516 99.4539 16.0099 98.1734 14.8078C97.2544 13.9498 97.163 12.9088 97.3938 11.8156C97.6639 10.5613 98.4304 9.57692 99.798 9.81212C101.022 10.0212 101.34 9.70759 101.231 8.56646C101.179 8.00897 101.1 7.29467 102.032 7.40356C102.803 7.49502 102.559 8.14398 102.577 8.6013C102.612 9.55079 102.59 10.4916 102.59 11.4367Z" fill="#EBEBEB"/>
<path d="M52.6766 7.82998C54.5582 7.74723 56.0434 8.161 56.7141 9.91624C57.2934 11.4406 57.0974 12.8779 55.904 14.1018C54.58 15.4607 52.8944 15.3083 51.2481 15.2037C50.5164 15.1558 50.7298 14.4546 50.7254 13.9929C50.6993 12.621 50.8343 11.2316 50.6862 9.87268C50.4946 8.10873 51.1522 7.48155 52.6766 7.82998Z" fill="#F3F3F3"/>
<path d="M68.4649 12.7122C68.3386 13.1216 68.2166 13.5311 68.0903 13.9405C67.9248 14.4631 67.9771 15.1948 67.1974 15.221C66.2872 15.2558 66.3264 14.4239 66.1478 13.8534C65.8081 12.7601 65.5206 11.6539 65.207 10.5519C65.1243 10.2688 65.0502 9.94217 65.3769 9.82458C65.7253 9.70263 66.1173 9.77231 66.248 10.2035C66.5572 11.227 66.8403 12.2593 67.1583 13.3699C67.7637 12.66 67.7941 11.8499 68.0337 11.1051C68.1905 10.6129 68.1774 9.83329 68.9266 9.82458C69.7192 9.81587 69.6408 10.565 69.7846 11.0964C69.9152 11.5798 70.072 12.0546 70.2158 12.5337C70.2463 12.6643 70.2898 12.795 70.3464 12.9169C70.4902 13.2218 70.6905 13.5006 70.7689 13.8316C70.782 13.5441 70.6992 13.2392 70.9475 13.004C71.3177 11.9108 71.2175 9.71134 72.1931 10.0075C73.4867 10.4039 71.8621 11.9544 71.8839 13.065C71.8926 13.4701 71.5921 13.8708 71.4963 14.2889C71.3743 14.8333 71.1827 15.2645 70.5294 15.2297C69.9631 15.1992 69.8891 14.6896 69.7628 14.3107C69.532 13.6356 69.3882 12.93 69.2097 12.2375C68.9745 11.9283 68.9222 11.6147 69.1966 11.3011C68.8264 11.7105 68.6565 12.2157 68.4649 12.7122Z" fill="#F2F2F2"/>
<path d="M130.643 10.2257C131.867 9.76404 133.039 9.38512 133.753 10.7484C134.459 12.1029 134.132 13.5663 134.01 14.9906C133.979 15.3303 133.544 15.2258 133.274 15.217C132.891 15.204 132.834 14.9078 132.83 14.616C132.817 13.7449 132.803 12.8782 132.821 12.0071C132.834 11.332 132.568 10.805 131.889 10.7789C131.17 10.7484 130.661 11.1578 130.652 11.9635C130.639 12.7606 130.648 13.5576 130.643 14.3547C130.643 14.7946 130.656 15.217 130.016 15.2432C129.371 15.2693 129.337 14.8773 129.337 14.4113C129.337 12.3817 129.332 10.352 129.341 8.32239C129.341 7.91734 129.241 7.43824 129.911 7.39469C130.704 7.34678 130.652 7.86507 130.648 8.38773C130.639 8.95829 130.643 9.52885 130.643 10.2257Z" fill="#FCFCFC"/>
<path d="M114.702 12.5251C114.702 12.3073 114.65 12.0722 114.711 11.8805C114.942 11.1749 114.11 9.80297 115.491 9.87266C117.032 9.95105 119.467 8.98415 119.519 11.911C119.537 12.9955 120.325 14.9816 118.975 15.0818C117.324 15.2081 118.496 13.296 118.217 12.3248C118.039 11.7019 118.139 10.9354 117.311 10.8396C116.414 10.735 116.048 11.4232 115.913 12.181C115.826 12.6732 115.939 13.2002 115.839 13.688C115.73 14.2237 116.292 15.2255 115.273 15.1906C114.323 15.1602 114.811 14.1758 114.711 13.6053C114.654 13.2568 114.702 12.8866 114.702 12.5251Z" fill="#E3E3E3"/>
<path d="M140.299 14.3852C139.158 15.5046 137.86 15.6396 136.736 14.6596C135.639 13.7014 135.587 12.4209 136.209 11.1056C136.763 9.9427 137.76 9.61604 138.892 9.79897C139.994 9.97755 140.626 10.6831 140.691 11.8896C140.757 13.1004 139.916 12.7737 139.25 12.9044C138.574 13.0351 137.329 12.373 137.351 13.4662C137.368 14.4724 138.614 14.3591 139.476 14.346C139.75 14.3417 140.025 14.3722 140.299 14.3852Z" fill="#E8E8E8"/>
<path d="M110.133 15.2603C108.326 15.2473 107.564 14.1323 107.581 12.5164C107.599 10.8788 108.461 9.82039 110.234 9.7812C112.037 9.742 112.825 10.8788 112.982 12.4598C113.143 14.0495 111.815 15.2603 110.133 15.2603Z" fill="#F2F2F2"/>
<path d="M87.3416 9.7769C88.7223 9.8945 89.7502 10.722 89.7066 12.4816C89.6631 14.0975 89.001 15.2473 87.1413 15.2517C85.3555 15.256 84.2275 14.1802 84.2754 12.4947C84.3146 10.9659 85.5341 9.76819 87.3416 9.7769Z" fill="#F1F1F1"/>
<path d="M61.396 15.2389C59.214 15.3434 58.3777 14.2371 58.3908 12.6125C58.4038 11.0315 59.227 9.84683 61.004 9.79021C62.7506 9.73359 63.6739 10.6961 63.7959 12.386C63.9178 14.0498 62.7636 15.2084 61.396 15.2389Z" fill="#F3F3F3"/>
<path d="M91.4834 10.2601C92.8423 9.60245 94.2535 9.31064 95.1638 10.6434C96.0392 11.9326 95.9042 13.6748 95.3554 15.0075C95.1725 15.4431 93.243 15.2645 92.128 15.1643C91.4355 15.099 91.0348 14.315 91.0827 13.7053C91.1611 12.6687 91.9625 12.1068 92.9294 11.8368C93.3301 11.7236 93.7395 11.6582 94.1664 11.5624C93.8049 9.88556 92.1237 11.4187 91.4834 10.2601Z" fill="#EDEDED"/>
<path d="M79.2665 13.2871C79.2665 13.6486 79.2708 14.0101 79.2665 14.3716C79.2621 14.8115 79.2752 15.2296 78.6349 15.2514C78.0078 15.2688 77.9424 14.8986 77.9468 14.4239C77.9511 13.7009 77.925 12.9779 77.9511 12.2549C77.9816 11.5232 77.7551 10.8611 77.0016 10.7958C76.1436 10.7174 75.7516 11.3881 75.6689 12.1808C75.6036 12.8254 75.6123 13.4744 75.5687 14.1233C75.5382 14.5937 75.7168 15.2558 74.9198 15.2035C74.2751 15.1643 74.5016 14.5807 74.4711 14.2017C74.4363 13.7706 74.3231 13.2697 74.4886 12.9125C74.9241 11.9718 73.3692 10.1294 75.4424 10.0467C79.1663 9.89858 79.2752 10.1294 79.2665 13.2871Z" fill="#F5F5F5"/>
<path d="M127.777 15.0562C125.826 15.5789 125.116 14.9299 125.129 13.1921C125.134 12.3733 125.504 11.4586 124.768 10.7225C123.722 9.67288 125.177 9.21556 125.482 8.94553C126.588 7.96991 126.275 10.5178 127.438 9.91679C127.847 10.7792 127.02 10.5265 126.706 10.7879C125.796 11.5414 126.301 13.7713 127.777 15.0562Z" fill="#E4E4E4"/>
<path d="M81.4049 11.3448C81.4049 10.33 81.3962 9.31953 81.4093 8.30472C81.4137 7.89531 81.3265 7.3683 81.9929 7.39879C82.4372 7.41621 82.5766 7.75158 82.5766 8.14792C82.5809 10.2472 82.5809 12.3466 82.5766 14.4459C82.5766 14.8248 82.4894 15.1819 82.0365 15.2342C81.3614 15.3126 81.4137 14.8074 81.4093 14.3849C81.4006 13.3701 81.4049 12.3553 81.4049 11.3448Z" fill="#DADADA"/>
<path d="M68.4649 12.7129C68.3386 12.0988 68.6478 11.6545 69.0442 11.2495C69.336 11.5456 69.2402 11.8984 69.1966 12.2425C68.9571 12.3993 68.7088 12.5561 68.4649 12.7129Z" fill="#989898"/>
<path d="M70.9432 13.009C70.9867 13.3531 71.0782 13.7102 70.7907 14.002C70.39 13.597 70.0808 13.1527 70.2071 12.5342C70.451 12.6954 70.6993 12.8522 70.9432 13.009Z" fill="#989898"/>
<path d="M85.3554 30.3264C85.338 32.6827 84.2274 34.0111 82.3197 33.9589C80.5862 33.911 79.6629 32.5956 79.6977 30.2132C79.7326 27.8003 80.6385 26.5982 82.4634 26.559C84.3101 26.5198 85.3729 27.9005 85.3554 30.3264Z" fill="#020202"/>
<path d="M72.5112 30.1735C72.533 32.6212 71.54 33.9278 69.641 33.9583C67.8335 33.9845 66.8753 32.7562 66.8404 30.3564C66.8056 27.9522 67.8509 26.5802 69.7237 26.5584C71.5225 26.5367 72.4938 27.7997 72.5112 30.1735Z" fill="#020202"/>
<path d="M55.5773 23.1655C56.4135 24.446 56.4919 25.8615 57.0538 27.0854C57.8552 28.8189 57.7245 29.6333 55.4597 29.4635C54.0006 29.3546 53.5389 29.1586 54.14 27.6778C54.7062 26.2797 55.0677 24.7988 55.5773 23.1655Z" fill="#070707"/>
<path d="M120.195 30.1779C120.177 32.482 118.84 34.2285 117.154 34.1632C115.504 34.0978 114.345 32.4776 114.315 30.1954C114.284 28.0786 115.608 26.3495 117.268 26.3408C118.936 26.3321 120.212 28.0002 120.195 30.1779Z" fill="#020202"/>
<path d="M136.767 29.2937C136.053 28.7841 134.642 29.9296 134.559 28.5184C134.476 27.1465 135.669 26.2972 136.993 26.2623C138.344 26.2275 139.568 27.0376 139.354 28.4792C139.119 30.0646 137.581 28.6839 136.767 29.2937Z" fill="#080808"/>
<path d="M101.24 12.4861C101.183 13.3049 101.183 14.2544 100.02 14.3371C98.8789 14.4155 98.5479 13.4835 98.5217 12.6429C98.4956 11.8328 98.6873 10.8789 99.8153 10.7787C101.013 10.6786 101.179 11.5279 101.24 12.4861Z" fill="#080808"/>
<path d="M55.7602 11.3187C55.586 12.2944 55.5032 13.3571 54.4797 13.8841C53.8612 14.2064 53.1469 14.6202 52.437 14.2979C51.6661 13.9494 52.1321 13.1567 52.0494 12.5644C51.9797 12.0722 51.9144 11.5235 52.0624 11.0661C52.3281 10.243 51.1434 8.67935 53.1644 8.7142C54.8281 8.74468 55.5773 9.74643 55.7602 11.3187Z" fill="#0B0B0B"/>
<path d="M137.159 11.671C137.682 10.5386 138.378 10.5647 139.088 10.8783C139.271 10.9567 139.459 11.5317 139.393 11.5926C138.714 12.198 137.978 12.0195 137.159 11.671Z" fill="#0B0B0B"/>
<path d="M108.879 13.0087C108.857 11.7239 108.953 10.8049 110.081 10.7221C111.126 10.6437 111.636 11.4016 111.658 12.3467C111.68 13.2875 111.531 14.2936 110.264 14.3459C109.105 14.3894 108.909 13.5488 108.879 13.0087Z" fill="#050505"/>
<path d="M88.4087 12.36C88.3782 13.4445 88.2432 14.2895 87.0846 14.3505C85.717 14.4245 85.6691 13.3531 85.6212 12.4559C85.5733 11.5107 86.048 10.7355 87.089 10.7267C88.2562 10.718 88.3738 11.6327 88.4087 12.36Z" fill="#030303"/>
<path d="M59.6582 12.6041C59.7105 11.7199 59.889 10.8227 60.9518 10.7312C62.0319 10.6397 62.4805 11.4542 62.4457 12.3863C62.4108 13.2704 62.4152 14.3549 61.0563 14.3506C59.8977 14.3506 59.6974 13.5405 59.6582 12.6041Z" fill="#020202"/>
<path d="M93.2344 14.3721C92.764 14.3851 92.3241 14.3067 92.3372 13.7144C92.3546 13.0349 92.764 12.6691 93.4391 12.6255C93.9139 12.595 94.3233 12.6909 94.2971 13.2963C94.2623 13.967 93.9661 14.3895 93.2344 14.3721Z" fill="#1E1E1E"/>
</svg>
