<svg width="157" height="46" viewBox="0 0 157 46" fill="none" xmlns="http://www.w3.org/2000/svg">
<path d="M78.3892 45.2086C54.4162 45.2086 30.4433 45.2086 6.47032 45.2086C2.03479 45.2086 0.235062 43.4089 0.235062 38.9689C0.230661 28.2673 0.226261 17.5658 0.235062 6.86418C0.239462 2.87749 2.1492 0.989752 6.1711 0.989752C54.4074 0.985352 102.648 0.985352 150.889 0.985352C154.933 0.985352 156.975 2.9699 156.983 7.00499C157.005 17.7066 157.005 28.4082 156.983 39.1097C156.975 43.2548 154.95 45.2086 150.748 45.2086C126.626 45.2086 102.507 45.2086 78.3892 45.2086Z" fill="black"/>
<path d="M58.9881 26.6173C59.2082 26.6173 59.4282 26.6173 59.6482 26.6173C62.7724 26.6173 63.3621 27.493 62.2268 30.472C60.9727 33.7679 57.3512 35.4884 53.5273 34.5995C49.7431 33.7195 47.3889 30.4896 47.6441 26.5117C47.8553 23.1675 50.9355 20.0609 54.3766 19.81C56.2115 19.678 58.0641 19.744 59.591 20.9761C59.9298 21.2489 60.9991 21.2841 60.3302 22.1554C59.877 22.7451 59.4766 23.4271 58.4161 22.7054C56.9112 21.6846 55.2215 21.4558 53.4041 22.1686C51.1512 23.0443 50.0907 24.7164 49.8707 26.9782C49.6639 29.0903 50.9619 31.3169 52.8497 32.1793C55.0146 33.165 57.1092 33.0286 59.0101 31.5017C59.7714 30.89 60.5062 30.054 60.207 29.0903C59.9034 28.1134 58.8165 28.7471 58.0905 28.6107C57.6636 28.5315 57.2148 28.5975 56.7748 28.5975C56.0531 28.5931 55.3271 28.7603 55.3183 27.5634C55.3095 26.2785 56.1543 26.6525 56.7968 26.6217C57.5228 26.5865 58.2577 26.6173 58.9881 26.6173Z" fill="#FDFDFD"/>
<path d="M11.7463 8.95021C12.4284 7.92493 13.3701 8.36056 14.0653 8.74339C19.7725 11.9072 25.4445 15.1371 31.1254 18.3449C30.3861 20.7387 28.4192 21.9752 26.505 23.2601C26.3114 23.3129 26.109 23.3173 25.911 23.2865C25.2509 23.0268 24.8285 22.4724 24.3269 22.0192C23.7416 21.4163 23.1476 20.8179 22.5403 20.237C21.9507 19.6298 21.3522 19.0357 20.7406 18.4505C19.8605 17.5528 18.9717 16.664 18.0608 15.7971C16.0235 13.4561 13.3481 11.696 11.7463 8.95021Z" fill="#00EE75"/>
<path d="M26.021 23.1101C26.1574 23.1189 26.2938 23.1189 26.4258 23.1013C28.6744 24.0078 30.2849 25.5479 31.1297 27.8449C25.4709 31.0351 19.8165 34.2385 14.1401 37.3936C13.4008 37.8028 12.5032 38.1636 11.7639 37.2528C11.8431 36.6323 12.248 36.2099 12.6616 35.7962C16.5603 31.88 20.4678 27.9769 24.384 24.0782C24.8373 23.6206 25.2817 23.1057 26.021 23.1101Z" fill="#FD3A44"/>
<path d="M92.6507 33.8289C90.2129 35.2062 88.1403 35.0214 86.5914 33.3537C84.9853 31.6288 84.7697 29.3186 86.0326 27.3297C87.2779 25.3627 89.3768 24.7071 91.709 25.5695C91.9818 25.6707 92.4527 25.9392 92.4791 25.8996C93.0115 25.0723 93.9312 25.0019 94.4548 25.4683C95.1236 26.0624 94.6968 27.114 94.71 27.9589C94.7496 30.2955 94.7892 32.6364 94.688 34.9686C94.6044 36.8652 93.7155 38.3305 91.7882 38.8981C89.8477 39.4745 88.0083 39.2809 86.5826 37.6924C86.2614 37.336 85.1833 36.9312 86.103 36.2139C86.6046 35.8223 87.2911 35.281 87.9643 36.2095C88.8312 37.3976 90.1425 37.4812 91.313 36.962C92.4703 36.4471 92.8707 35.303 92.6507 33.8289Z" fill="#FCFCFC"/>
<path d="M113.42 27.5016C113.42 26.5511 113.341 25.5919 113.438 24.6502C113.592 23.1937 112.743 20.6943 113.9 20.4787C116.434 20.0079 119.33 19.515 121.754 21.2223C123.321 22.3224 123.959 23.9373 123.383 25.8339C122.793 27.7876 121.398 28.8437 119.369 29.0285C115.717 29.3673 115.713 29.3585 115.62 33.0196C115.603 33.7941 115.854 34.5861 114.503 34.5817C113.13 34.5773 113.425 33.7413 113.42 32.9932C113.407 31.1627 113.42 29.3321 113.42 27.5016Z" fill="#FEFEFE"/>
<path d="M134.7 28.5667C133.67 26.899 132.333 26.5909 130.96 27.5018C129.952 28.1706 129.081 27.845 128.751 27.1938C128.399 26.5029 129.345 25.9837 129.983 25.6317C133.222 23.8319 136.707 25.8649 136.733 29.5523C136.742 30.8724 136.68 32.1925 136.755 33.5082C136.808 34.4499 136.192 34.8943 135.629 34.4851C134.467 33.6358 133.653 34.4631 132.663 34.6743C131.149 34.9955 129.719 34.7051 128.724 33.385C127.998 32.4258 127.91 31.3125 128.535 30.2828C129.424 28.8131 130.942 28.5007 132.513 28.3819C133.164 28.3335 133.719 28.9407 134.7 28.5667Z" fill="#FCFCFC"/>
<path d="M26.0209 23.1106C21.4973 28.0565 16.5206 32.5449 11.7638 37.2532C11.139 36.7164 11.117 35.9815 11.117 35.2511C11.1082 27.0665 11.1038 18.8819 11.1082 10.6929C11.1082 10.42 11.249 10.1428 11.3238 9.87C12.1026 10.6004 12.0278 11.5773 12.0322 12.5014C12.0454 15.5332 12.107 18.5694 11.9926 21.5969C12.0806 23.4714 12.0058 25.3503 11.9794 27.2249C12.0278 28.3117 11.9662 29.3986 11.9442 30.4811C12.0322 31.2424 11.6362 32.052 12.2435 32.9233C13.4139 32.1224 14.338 31.0971 15.2313 30.0807C17.6911 27.2821 20.8901 25.2623 23.2663 22.3801C23.6007 21.9753 24.0583 21.7421 24.5908 21.6937C25.066 22.1689 25.5412 22.6397 26.0209 23.1106Z" fill="#01C3FD"/>
<path d="M104.641 34.7624C101.896 34.7272 99.9859 33.1871 99.6075 30.8593C99.2071 28.3995 100.439 26.1157 102.587 25.3369C104.734 24.558 106.996 25.5173 108.188 27.5414C108.769 28.5315 108.527 28.9055 107.546 29.2488C106.098 29.7592 104.685 30.3709 103.264 30.9429C102.864 31.1057 102.283 31.2553 102.362 31.7306C102.419 32.0738 102.881 32.4522 103.251 32.6194C104.325 33.1123 105.46 33.0683 106.3 32.2278C107.092 31.4313 107.713 31.9022 108.153 32.3862C108.839 33.1343 107.964 33.4599 107.51 33.8427C106.626 34.5864 105.579 34.8416 104.641 34.7624Z" fill="#FBFBFB"/>
<path d="M79.2603 34.758C76.3869 34.7316 74.178 32.5402 74.266 29.8032C74.3452 27.2114 76.6597 25.0641 79.3439 25.0773C82.0897 25.0949 84.4835 27.4886 84.3823 30.1112C84.2723 32.7426 82.0237 34.7844 79.2603 34.758Z" fill="#FCFCFC"/>
<path d="M68.264 34.7538C65.373 34.679 63.4325 32.7164 63.4809 29.9134C63.5293 27.0136 65.637 25.0027 68.55 25.0731C71.199 25.1347 73.4344 27.4185 73.3816 30.0102C73.3288 32.8749 71.2166 34.8286 68.264 34.7538Z" fill="#FDFDFD"/>
<path d="M146.845 25.4468C144.979 29.6315 143.083 33.7854 141.288 37.9877C140.742 39.2682 139.849 38.9162 138.405 38.8326C142.81 33.7986 138.397 29.9219 137.081 25.614C139.149 25.1168 139.149 25.1168 141.776 31.3212C142.845 30.1199 143.219 28.5974 143.677 27.1805C144.214 25.5128 145.085 24.9231 146.845 25.4468Z" fill="#FBFBFB"/>
<path d="M11.4514 21.7282C11.4118 17.7768 11.3678 13.8209 11.3282 9.86937C11.3062 9.49095 11.403 9.16092 11.7506 8.94971C13.9903 11.1587 16.2345 13.3676 18.4743 15.5766C17.0354 17.9528 14.8572 19.6249 12.8551 21.4642C12.4898 21.7986 11.9794 21.9791 11.4514 21.7282Z" fill="#00DFFD"/>
<path d="M96.2589 27.4923C96.2589 25.5166 96.2809 23.5408 96.2501 21.5651C96.2369 20.7378 96.3029 20.2054 97.3854 20.201C98.5251 20.201 98.4679 20.839 98.4679 21.6135C98.4547 25.4902 98.4459 29.3713 98.4767 33.2479C98.4811 34.0884 98.4195 34.5724 97.337 34.5724C96.1973 34.5724 96.2457 33.974 96.2545 33.1951C96.2721 31.2986 96.2589 29.3933 96.2589 27.4923Z" fill="#FDFDFD"/>
<path d="M126.859 27.585C126.859 29.4904 126.85 31.3913 126.863 33.2967C126.868 34.0095 126.846 34.5508 125.86 34.5728C124.883 34.5948 124.835 34.1195 124.839 33.3759C124.861 29.42 124.848 25.4685 124.852 21.5126C124.852 20.8658 124.707 20.1837 125.785 20.1969C126.903 20.2101 126.876 20.879 126.872 21.6534C126.85 23.6336 126.859 25.6093 126.859 27.585Z" fill="#F1F1F1"/>
<path d="M31.1297 27.8455C29.5632 26.2658 27.9923 24.6861 26.4258 23.102C27.9923 21.5178 29.5588 19.9293 31.1253 18.3452C31.2881 18.442 31.4465 18.5388 31.6094 18.6356C32.6698 21.6103 32.6654 24.5805 31.6094 27.5551C31.4509 27.6563 31.2881 27.7487 31.1297 27.8455Z" fill="#FDC500"/>
<path d="M92.4966 12.483C92.4966 11.4093 92.4834 10.3356 92.501 9.26636C92.5098 8.78672 92.3602 8.12228 93.1698 8.17948C93.8211 8.22788 93.6143 8.81753 93.6231 9.20036C93.6451 10.8109 93.6495 12.4258 93.6231 14.0363C93.6187 14.4235 93.8563 14.9472 93.2622 15.1452C92.6726 15.3432 92.2766 15.0308 91.9862 14.5731C91.1369 13.2311 90.3052 11.8802 89.0247 10.5425C89.0247 11.7173 89.0379 12.8922 89.0203 14.0627C89.0115 14.5467 89.1523 15.2068 88.3471 15.1408C87.6958 15.088 87.9071 14.4983 87.9027 14.1155C87.8807 12.505 87.8763 10.8901 87.9027 9.27956C87.9071 8.89233 87.6694 8.35989 88.2723 8.17948C88.8311 8.01227 89.2492 8.21908 89.5616 8.72072C90.3668 10.0056 91.1985 11.2773 92.017 12.549C92.1798 12.527 92.3382 12.505 92.4966 12.483Z" fill="#F0F0F0"/>
<path d="M53.8618 12.6243C53.1049 11.9643 52.0268 12.8091 51.314 11.8279C52.3129 11.0798 53.4261 11.401 54.4118 11.4715C55.6747 11.5639 55.0895 12.5979 54.8871 13.1568C54.3326 14.7057 53.0609 15.4449 51.4856 15.3833C49.8399 15.3173 48.511 14.5033 48.0182 12.8532C47.5473 11.2734 47.8597 9.80813 49.259 8.74765C50.6363 7.70478 52.0753 7.76638 53.545 8.55404C53.897 8.74325 54.205 8.97647 53.941 9.3857C53.5098 10.0501 53.1533 9.47371 52.7177 9.30209C51.116 8.67285 49.7871 9.05568 49.1754 10.7366C48.6298 12.2371 49.083 13.566 50.6627 14.1116C52.0973 14.6001 53.3557 14.3053 53.8618 12.6243Z" fill="#F1F1F1"/>
<path d="M79.5378 11.4851C79.5906 9.4698 81.2011 7.88568 83.1548 7.92529C85.2318 7.96929 86.8511 9.65461 86.8115 11.7316C86.7719 13.8041 85.0338 15.4762 83.0096 15.3926C80.9283 15.3046 79.4806 13.6721 79.5378 11.4851Z" fill="#F7F7F7"/>
<path d="M60.2817 11.7137C59.6041 12.3562 58.922 12.0614 58.306 12.0966C57.7295 12.1318 57.3423 12.2198 57.3423 12.9282C57.3423 13.6103 57.4875 14.0723 58.284 14.0503C58.7196 14.0371 59.1596 14.0591 59.5953 14.0591C60.0089 14.0591 60.3345 14.2395 60.3697 14.6444C60.4137 15.1416 59.9913 15.1284 59.6305 15.1944C56.7307 15.7224 56.2114 15.3132 56.207 12.4882C56.207 11.9778 56.207 11.4673 56.207 10.9569C56.207 7.86347 56.3786 7.71386 59.4985 8.13189C59.8241 8.17589 60.3037 8.01748 60.3477 8.54552C60.3961 9.11756 59.9869 9.25837 59.4985 9.25837C59.1332 9.25837 58.768 9.27157 58.4072 9.26277C57.7163 9.24517 57.3467 9.47839 57.3291 10.2616C57.3115 11.0713 57.6943 11.2077 58.3896 11.2297C58.9836 11.2517 59.6877 10.9173 60.2817 11.7137Z" fill="#F1F1F1"/>
<path d="M31.6094 27.559C31.6094 24.5844 31.6094 21.6142 31.6094 18.6396C32.4806 19.106 33.3519 19.5725 34.2188 20.0389C35.1516 22.085 34.364 24.1268 34.1968 26.1685C33.5323 26.9914 32.4146 26.9826 31.6094 27.559Z" fill="#FBCB00"/>
<path d="M34.2013 26.164C33.2376 24.1179 34.4785 22.0805 34.2233 20.0344C34.2937 20.0432 34.3861 20.03 34.4345 20.0652C35.7282 21.064 38.2232 21.1212 38.0736 23.2158C37.9416 25.1475 35.6622 25.3676 34.2013 26.164Z" fill="#FAD100"/>
<path d="M74.0901 8.1232C74.6006 8.1232 75.111 8.0968 75.6171 8.13201C76.0043 8.15841 76.5807 7.94719 76.6467 8.58524C76.7039 9.15288 76.2507 9.32009 75.7799 9.27609C74.6446 9.16608 74.7018 9.90534 74.715 10.6666C74.737 11.8283 74.737 12.9944 74.7106 14.156C74.7018 14.5389 74.8954 15.1153 74.2441 15.1593C73.4609 15.2077 73.5709 14.5697 73.5665 14.0856C73.5533 12.924 73.5489 11.7579 73.5621 10.5962C73.5709 9.89213 73.5489 9.26289 72.5852 9.28489C72.1584 9.29369 71.6216 9.30689 71.6348 8.68645C71.6524 7.85479 72.3476 8.18921 72.7832 8.13641C73.2145 8.0836 73.6545 8.1232 74.0901 8.1232Z" fill="#E6E6E6"/>
<path d="M63.7756 8.12272C64.2861 8.12272 64.7965 8.09632 65.3026 8.13153C65.6854 8.15793 66.2486 7.93351 66.319 8.58476C66.385 9.1788 65.9406 9.30201 65.4742 9.27561C64.3697 9.214 64.3829 9.94006 64.3961 10.7101C64.4137 11.8718 64.4049 13.0379 64.3961 14.1996C64.3917 14.6308 64.4181 15.1412 63.8108 15.172C63.142 15.2072 63.252 14.6572 63.2432 14.2524C63.2256 13.2359 63.2828 12.215 63.2212 11.1985C63.1728 10.3889 63.7448 9.1348 62.0595 9.27121C61.6547 9.30201 61.3027 9.082 61.2939 8.67717C61.2763 8.02152 61.8351 8.14473 62.2399 8.12713C62.7592 8.10512 63.2696 8.12272 63.7756 8.12272Z" fill="#E6E6E6"/>
<path d="M70.7723 11.9154C70.4731 12.8571 71.2343 15.066 70.3279 14.9692C68.7657 14.8064 69.8262 12.8527 69.615 11.691C69.4478 10.7713 69.5886 9.79445 69.5974 8.84398C69.6018 8.43035 69.7734 8.13993 70.2266 8.13113C70.7415 8.12233 70.7679 8.50516 70.7679 8.87478C70.7767 9.82965 70.7723 10.7801 70.7723 11.9154Z" fill="#D9D9D9"/>
<path d="M11.4514 21.7283C13.6428 20.7162 14.9057 18.6437 16.657 17.1344C17.2599 16.6151 17.8671 16.1003 18.4699 15.5811C19.3368 16.4479 20.2081 17.3148 21.0749 18.1816C21.0925 19.5281 20.0497 20.2586 19.218 20.9627C17.0838 22.758 15.1169 24.7117 13.128 26.6567C12.6747 27.1011 12.2303 27.6643 11.4426 27.4487C11.447 25.539 11.447 23.6336 11.4514 21.7283Z" fill="#00D7FE"/>
<path d="M24.5909 21.693C21.1718 25.7589 16.7847 28.8479 13.2645 32.8126C12.8596 33.2658 12.4592 34.1063 11.7464 33.8247C11.0071 33.5343 11.4471 32.663 11.3767 32.0469C11.3371 31.6905 11.4207 31.3209 11.4471 30.9601C12.9608 28.3815 15.5966 26.9162 17.5768 24.7908C19.1961 23.0527 20.6746 21.1077 22.8308 19.9329C23.416 20.5181 24.0013 21.1077 24.5909 21.693Z" fill="#00CAFE"/>
<path d="M22.8263 19.9333C19.328 23.9156 15.5921 27.6514 11.4426 30.9605C11.4426 29.79 11.4426 28.6195 11.4426 27.449C14.5757 24.2808 18.1531 21.5746 21.0749 18.1819C21.6602 18.7672 22.2454 19.348 22.8263 19.9333Z" fill="#00D1FE"/>
<path d="M87.4714 29.3845C87.5814 28.2625 88.3471 27.158 90.0896 27.07C91.7617 26.9864 92.7122 28.148 92.7474 30.0358C92.7826 31.8355 91.7881 32.7332 90.1688 32.8916C88.6067 33.0456 87.423 31.6375 87.4714 29.3845Z" fill="#030303"/>
<path d="M115.669 24.6238C115.396 23.0309 115.532 21.9748 117.64 22.164C119.44 22.3224 121.081 22.3973 121.319 24.6194C121.495 26.2563 120.223 26.8636 117.755 27.1188C115.475 27.3476 115.374 26.2299 115.669 24.6238Z" fill="#010101"/>
<path d="M132.632 30.0887C133.336 30.3352 134.533 29.9787 134.48 31.1052C134.419 32.3857 133.195 32.8081 132.126 32.9226C131.374 33.0062 130.388 32.7465 130.423 31.6729C130.467 30.2912 131.686 30.344 132.632 30.0887Z" fill="#0B0B0B"/>
<path d="M105.944 27.7263C105.852 28.3863 105.222 28.3731 104.809 28.5976C104.364 28.8352 103.876 29.0068 103.392 29.1344C102.877 29.2664 102.375 29.9837 101.856 29.372C101.685 29.1696 101.856 28.5052 102.072 28.1839C102.741 27.1807 103.739 26.8682 104.914 27.0662C105.359 27.1367 105.733 27.2995 105.944 27.7263Z" fill="#141414"/>
<path d="M76.462 29.9705C76.4708 28.2676 77.6896 27.0399 79.353 27.0575C80.9063 27.0751 82.3144 28.4964 82.156 30.0673C81.9932 31.691 81.0559 32.7823 79.375 32.9363C77.9273 33.0683 76.4532 31.4886 76.462 29.9705Z" fill="#030303"/>
<path d="M71.1814 29.9916C71.1682 31.6505 69.8745 32.9926 68.3167 32.9662C66.7502 32.9398 65.6282 31.6065 65.6766 29.8464C65.725 28.1082 66.5654 27.1138 68.3432 27.0654C69.9889 27.017 71.199 28.2887 71.1814 29.9916Z" fill="#030303"/>
<path d="M85.729 11.528C85.6234 13.1649 84.8621 14.199 83.2208 14.2782C81.5267 14.3574 80.607 13.2793 80.5586 11.748C80.5102 10.2211 81.3551 9.08584 83.0492 9.05064C84.7037 9.01104 85.509 10.0055 85.729 11.528Z" fill="#020202"/>
<rect x="1.59619" y="0.771484" width="154.904" height="43.1727" rx="6.5" stroke="#A5A5A5"/>
</svg>
