<svg width="41" height="41" viewBox="0 0 41 41" fill="none" xmlns="http://www.w3.org/2000/svg"><path d="M34.6494 26.9558L40.0728 21.3428C40.2261 21.1842 40.3027 20.9963 40.3027 20.779C40.3027 20.5617 40.2261 20.3738 40.0728 20.2151L34.6494 14.602C34.4961 14.4433 34.3145 14.364 34.1047 14.364C33.8949 14.364 33.7132 14.4433 33.56 14.602C33.4066 14.7609 33.3299 14.9488 33.3299 15.1659L33.3299 26.392C33.3299 26.6092 33.4066 26.7971 33.56 26.9558C33.7132 27.1143 33.8949 27.1939 34.1047 27.1939C34.3145 27.1939 34.4961 27.1143 34.6494 26.9558Z" fill="url(#paint0_linear)"/><path d="M20.1539 30.7156L29.0481 21.6859C29.2996 21.4308 29.4253 21.1285 29.4253 20.779C29.4253 20.4294 29.2996 20.1271 29.0481 19.8718L20.1539 10.8421C19.9023 10.5868 19.6046 10.4592 19.2605 10.4592C18.9164 10.4592 18.6185 10.5868 18.3672 10.8421C18.1156 11.0978 17.9899 11.4 17.9899 11.7493L17.9899 29.8085C17.9899 30.1579 18.1156 30.4604 18.3672 30.7156C18.6184 30.9706 18.9164 31.0987 19.2605 31.0987C19.6046 31.0987 19.9023 30.9706 20.1539 30.7156Z" fill="url(#paint1_linear)"/><path fill-rule="evenodd" clip-rule="evenodd" d="M20.5 4.18367C11.4887 4.18367 4.18367 11.4887 4.18367 20.5C4.18367 29.5113 11.4887 36.8163 20.5 36.8163C24.2759 36.8163 27.747 35.5363 30.5112 33.3851L33.0806 36.6868C29.608 39.3893 25.2391 41 20.5 41C9.17816 41 0 31.8218 0 20.5C0 9.17816 9.17816 0 20.5 0C25.2391 0 29.608 1.61069 33.0806 4.31321L30.5112 7.61489C27.747 5.46374 24.2759 4.18367 20.5 4.18367Z" fill="url(#paint2_linear)"/><defs><linearGradient id="paint0_linear" x1="33.1905" y1="20.6395" x2="39.8819" y2="22.0117" gradientUnits="userSpaceOnUse"><stop stop-color="#0CA9CB"/><stop offset="0.484375" stop-color="#00D3C5"/><stop offset="1" stop-color="#0AFE6D"/></linearGradient><linearGradient id="paint1_linear" x1="17.8505" y1="20.6395" x2="28.8" y2="22.9459" gradientUnits="userSpaceOnUse"><stop stop-color="#0CA9CB"/><stop offset="0.484375" stop-color="#00D3C5"/><stop offset="1" stop-color="#0AFE6D"/></linearGradient><linearGradient id="paint2_linear" x1="2.33794e-07" y1="32.8" x2="33.4089" y2="32.1953" gradientUnits="userSpaceOnUse"><stop stop-color="#0CA9CB"/><stop offset="0.484375" stop-color="#00D3C5"/><stop offset="1" stop-color="#0AFE6D"/></linearGradient></defs></svg>