<svg width="151" height="147" viewBox="0 0 151 147" fill="none" xmlns="http://www.w3.org/2000/svg">
<path d="M128.109 96.1276L149.109 75.5653C149.703 74.9845 150 74.2961 150 73.5C150 72.7039 149.703 72.0157 149.109 71.4342L128.109 50.872C127.515 50.2905 126.812 50 126 50C125.188 50 124.484 50.2905 123.891 50.872C123.297 51.4541 123 52.1423 123 52.9377L123 94.0621C123 94.8577 123.297 95.5464 123.891 96.1276C124.484 96.7084 125.187 97 126 97C126.813 97 127.515 96.7084 128.109 96.1276Z" fill="#131419"/>
<path d="M128.95 96.3414L128.95 96.341L148.394 76.2166C148.394 76.2165 148.394 76.2163 148.395 76.2162C149.122 75.4643 149.5 74.5426 149.5 73.5C149.5 72.4571 149.121 71.5356 148.395 70.7833L128.95 50.6586C128.222 49.9056 127.316 49.5 126.278 49.5C125.239 49.5 124.333 49.9055 123.605 50.6589L123.605 50.659C122.879 51.4114 122.5 52.3326 122.5 53.3752L122.5 93.6246C122.5 94.6671 122.879 95.5891 123.606 96.3412C124.332 97.0928 125.238 97.5 126.278 97.5C127.317 97.5 128.223 97.0925 128.95 96.3414Z" stroke="url(#paint0_linear)" stroke-width="2"/>
<path d="M103.436 77.0496L103.435 77.05L71.5465 109.424C70.8232 110.158 70.0086 110.5 69.0555 110.5C68.1022 110.5 67.2869 110.158 66.565 109.425L66.5648 109.424C65.8423 108.691 65.5 107.857 65.5 106.874L65.5 42.1253C65.5 41.1432 65.842 40.3094 66.5654 39.5742C67.2867 38.8413 68.1016 38.5 69.0555 38.5C70.0093 38.5 70.8236 38.8412 71.5461 39.5746L103.435 71.9493C104.158 72.683 104.5 73.5165 104.5 74.5C104.5 75.4836 104.158 76.3172 103.436 77.0496Z" fill="#131419" stroke="url(#paint1_linear)" stroke-width="2"/>
<path d="M73.5 14C40.6391 14 14 40.6391 14 73.5C14 106.361 40.6391 133 73.5 133C86.909 133 99.2665 128.572 109.214 121.095L117.199 131.355C105.048 140.545 89.9023 146 73.5 146C33.4594 146 1 113.541 1 73.5C1 33.4594 33.4594 1 73.5 1C89.9023 1 105.048 6.45451 117.199 15.6449L109.214 25.9054C99.2665 18.428 86.909 14 73.5 14Z" fill="#131419" stroke="url(#paint2_linear)" stroke-width="2"/>
<defs>
<linearGradient id="paint0_linear" x1="128.5" y1="50.5" x2="130.415" y2="96.8927" gradientUnits="userSpaceOnUse">
<stop stop-color="#0CA9CB"/>
<stop offset="0.484375" stop-color="#00D3C5"/>
<stop offset="1" stop-color="#0AFE6D"/>
</linearGradient>
<linearGradient id="paint1_linear" x1="72.7" y1="37.5" x2="75.7218" y2="112.137" gradientUnits="userSpaceOnUse">
<stop stop-color="#0CA9CB"/>
<stop offset="0.484375" stop-color="#00D3C5"/>
<stop offset="1" stop-color="#0AFE6D"/>
</linearGradient>
<linearGradient id="paint2_linear" x1="8.38238e-07" y1="117.6" x2="119.783" y2="115.432" gradientUnits="userSpaceOnUse">
<stop stop-color="#0CA9CB"/>
<stop offset="0.484375" stop-color="#00D3C5"/>
<stop offset="1" stop-color="#0AFE6D"/>
</linearGradient>
</defs>
</svg>
